<svg xmlns="http://www.w3.org/2000/svg" xmlns:xlink="http://www.w3.org/1999/xlink" width="500" zoomAndPan="magnify" viewBox="0 0 375 374.999991" height="500" preserveAspectRatio="xMidYMid meet" version="1.0"><defs><g/><clipPath id="00a917bef6"><path d="M 1.875 207 L 165 207 L 165 370 L 1.875 370 Z M 1.875 207 " clip-rule="nonzero"/></clipPath><clipPath id="6c0c75950e"><path d="M 210 212 L 373.125 212 L 373.125 375 L 210 375 Z M 210 212 " clip-rule="nonzero"/></clipPath><clipPath id="b61d5d037c"><path d="M 225 227 L 373.125 227 L 373.125 375 L 225 375 Z M 225 227 " clip-rule="nonzero"/></clipPath><clipPath id="911f6828ca"><path d="M 229 231 L 373.125 231 L 373.125 375 L 229 375 Z M 229 231 " clip-rule="nonzero"/></clipPath></defs><g fill="#ffffff" fill-opacity="1"><g transform="translate(181.074734, 275.852324)"><g><path d="M 7.15625 -11.515625 C 5.75 -11.515625 4.648438 -11.0625 3.859375 -10.15625 C 3.078125 -9.25 2.6875 -8.003906 2.6875 -6.421875 C 2.6875 -4.867188 3.09375 -3.613281 3.90625 -2.65625 C 4.726562 -1.707031 5.835938 -1.234375 7.234375 -1.234375 C 9.015625 -1.234375 10.351562 -2.117188 11.25 -3.890625 L 12.671875 -3.1875 C 12.140625 -2.082031 11.398438 -1.242188 10.453125 -0.671875 C 9.503906 -0.0976562 8.40625 0.1875 7.15625 0.1875 C 5.863281 0.1875 4.75 -0.078125 3.8125 -0.609375 C 2.875 -1.148438 2.160156 -1.914062 1.671875 -2.90625 C 1.179688 -3.894531 0.9375 -5.066406 0.9375 -6.421875 C 0.9375 -8.453125 1.484375 -10.039062 2.578125 -11.1875 C 3.679688 -12.34375 5.203125 -12.921875 7.140625 -12.921875 C 8.492188 -12.921875 9.625 -12.65625 10.53125 -12.125 C 11.445312 -11.601562 12.117188 -10.816406 12.546875 -9.765625 L 10.90625 -9.234375 C 10.613281 -9.972656 10.140625 -10.535156 9.484375 -10.921875 C 8.828125 -11.316406 8.050781 -11.515625 7.15625 -11.515625 Z M 7.15625 -11.515625 "/></g></g><g transform="translate(194.443279, 275.852324)"><g><path d="M 13.515625 -6.421875 C 13.515625 -5.097656 13.257812 -3.929688 12.75 -2.921875 C 12.238281 -1.921875 11.503906 -1.148438 10.546875 -0.609375 C 9.597656 -0.078125 8.476562 0.1875 7.1875 0.1875 C 5.875 0.1875 4.742188 -0.078125 3.796875 -0.609375 C 2.847656 -1.140625 2.125 -1.90625 1.625 -2.90625 C 1.125 -3.914062 0.875 -5.085938 0.875 -6.421875 C 0.875 -8.460938 1.429688 -10.054688 2.546875 -11.203125 C 3.660156 -12.347656 5.210938 -12.921875 7.203125 -12.921875 C 8.503906 -12.921875 9.628906 -12.660156 10.578125 -12.140625 C 11.523438 -11.628906 12.25 -10.882812 12.75 -9.90625 C 13.257812 -8.925781 13.515625 -7.765625 13.515625 -6.421875 Z M 11.75 -6.421875 C 11.75 -8.015625 11.351562 -9.257812 10.5625 -10.15625 C 9.769531 -11.0625 8.648438 -11.515625 7.203125 -11.515625 C 5.742188 -11.515625 4.613281 -11.066406 3.8125 -10.171875 C 3.019531 -9.285156 2.625 -8.035156 2.625 -6.421875 C 2.625 -4.828125 3.023438 -3.5625 3.828125 -2.625 C 4.640625 -1.6875 5.757812 -1.21875 7.1875 -1.21875 C 8.65625 -1.21875 9.78125 -1.671875 10.5625 -2.578125 C 11.351562 -3.484375 11.75 -4.765625 11.75 -6.421875 Z M 11.75 -6.421875 "/></g></g></g><g fill="#ffffff" fill-opacity="1"><g transform="translate(208.842267, 281.843544)"><g><path d="M 0.640625 0 L 0.640625 -0.78125 C 0.847656 -1.269531 1.101562 -1.695312 1.40625 -2.0625 C 1.707031 -2.4375 2.023438 -2.769531 2.359375 -3.0625 C 2.691406 -3.363281 3.019531 -3.640625 3.34375 -3.890625 C 3.675781 -4.148438 3.972656 -4.40625 4.234375 -4.65625 C 4.503906 -4.914062 4.71875 -5.1875 4.875 -5.46875 C 5.039062 -5.75 5.125 -6.066406 5.125 -6.421875 C 5.125 -6.898438 4.984375 -7.269531 4.703125 -7.53125 C 4.421875 -7.800781 4.035156 -7.9375 3.546875 -7.9375 C 3.066406 -7.9375 2.671875 -7.804688 2.359375 -7.546875 C 2.054688 -7.285156 1.878906 -6.921875 1.828125 -6.453125 L 0.6875 -6.5625 C 0.769531 -7.257812 1.066406 -7.8125 1.578125 -8.21875 C 2.085938 -8.632812 2.742188 -8.84375 3.546875 -8.84375 C 4.421875 -8.84375 5.09375 -8.632812 5.5625 -8.21875 C 6.039062 -7.8125 6.28125 -7.222656 6.28125 -6.453125 C 6.28125 -6.117188 6.203125 -5.785156 6.046875 -5.453125 C 5.890625 -5.117188 5.65625 -4.785156 5.34375 -4.453125 C 5.039062 -4.117188 4.457031 -3.597656 3.59375 -2.890625 C 3.125 -2.503906 2.75 -2.15625 2.46875 -1.84375 C 2.1875 -1.53125 1.984375 -1.234375 1.859375 -0.953125 L 6.40625 -0.953125 L 6.40625 0 Z M 0.640625 0 "/></g></g></g><path fill="#d1d3d4" d="M 298.355469 302.808594 L 76.644531 302.808594 C 73.179688 302.808594 70.003906 300.878906 68.410156 297.804688 C 66.816406 294.726562 67.070312 291.019531 69.070312 288.1875 L 179.925781 131.273438 C 181.664062 128.8125 184.488281 127.351562 187.5 127.351562 C 190.507812 127.351562 193.332031 128.8125 195.070312 131.273438 L 305.925781 288.1875 C 307.925781 291.015625 308.179688 294.726562 306.585938 297.804688 C 304.996094 300.878906 301.820312 302.808594 298.355469 302.808594 Z M 94.546875 284.265625 L 280.453125 284.265625 L 187.5 152.691406 Z M 94.546875 284.265625 " fill-opacity="1" fill-rule="nonzero"/><path fill="#ffa91a" d="M 187.5 32.886719 C 182.625 32.886719 178.675781 28.9375 178.675781 24.0625 L 178.675781 8.890625 C 178.675781 4.015625 182.625 0.0664062 187.5 0.0664062 C 192.375 0.0664062 196.324219 4.015625 196.324219 8.890625 L 196.324219 24.0625 C 196.324219 28.9375 192.375 32.886719 187.5 32.886719 Z M 187.5 32.886719 " fill-opacity="1" fill-rule="nonzero"/><path fill="#ffa91a" d="M 187.5 212.144531 C 182.625 212.144531 178.675781 208.191406 178.675781 203.320312 L 178.675781 188.148438 C 178.675781 183.273438 182.625 179.324219 187.5 179.324219 C 192.375 179.324219 196.324219 183.273438 196.324219 188.148438 L 196.324219 203.320312 C 196.324219 208.191406 192.375 212.144531 187.5 212.144531 Z M 187.5 212.144531 " fill-opacity="1" fill-rule="nonzero"/><path fill="#ffa91a" d="M 260.71875 106.105469 C 260.71875 101.230469 264.667969 97.28125 269.542969 97.28125 L 284.714844 97.28125 C 289.589844 97.28125 293.539062 101.230469 293.539062 106.105469 C 293.539062 110.976562 289.589844 114.929688 284.714844 114.929688 L 269.542969 114.929688 C 264.667969 114.929688 260.71875 110.976562 260.71875 106.105469 Z M 260.71875 106.105469 " fill-opacity="1" fill-rule="nonzero"/><path fill="#ffa91a" d="M 81.460938 106.105469 C 81.460938 101.230469 85.410156 97.28125 90.285156 97.28125 L 105.457031 97.28125 C 110.332031 97.28125 114.28125 101.230469 114.28125 106.105469 C 114.28125 110.976562 110.332031 114.929688 105.457031 114.929688 L 90.285156 114.929688 C 85.410156 114.929688 81.460938 110.976562 81.460938 106.105469 Z M 81.460938 106.105469 " fill-opacity="1" fill-rule="nonzero"/><path fill="#ffa91a" d="M 239.273438 54.332031 C 235.828125 50.886719 235.828125 45.300781 239.273438 41.855469 L 250.003906 31.125 C 253.449219 27.679688 259.035156 27.679688 262.480469 31.125 C 265.925781 34.570312 265.925781 40.15625 262.480469 43.601562 L 251.75 54.332031 C 248.304688 57.777344 242.71875 57.777344 239.273438 54.332031 Z M 239.273438 54.332031 " fill-opacity="1" fill-rule="nonzero"/><path fill="#ffa91a" d="M 112.519531 181.085938 C 109.074219 177.640625 109.074219 172.054688 112.519531 168.605469 L 123.25 157.878906 C 126.695312 154.433594 132.28125 154.433594 135.726562 157.878906 C 139.171875 161.324219 139.171875 166.910156 135.726562 170.355469 L 124.996094 181.085938 C 121.550781 184.53125 115.964844 184.53125 112.519531 181.085938 Z M 112.519531 181.085938 " fill-opacity="1" fill-rule="nonzero"/><path fill="#ffa91a" d="M 239.273438 157.878906 C 242.71875 154.433594 248.304688 154.433594 251.75 157.878906 L 262.480469 168.605469 C 265.925781 172.054688 265.925781 177.640625 262.480469 181.085938 C 259.035156 184.53125 253.449219 184.53125 250.003906 181.085938 L 239.273438 170.355469 C 235.828125 166.910156 235.828125 161.324219 239.273438 157.878906 Z M 239.273438 157.878906 " fill-opacity="1" fill-rule="nonzero"/><path fill="#ffa91a" d="M 112.519531 31.125 C 115.964844 27.679688 121.550781 27.679688 124.996094 31.125 L 135.726562 41.855469 C 139.171875 45.300781 139.171875 50.886719 135.726562 54.332031 C 132.28125 57.777344 126.695312 57.777344 123.25 54.332031 L 112.519531 43.601562 C 109.074219 40.15625 109.074219 34.570312 112.519531 31.125 Z M 112.519531 31.125 " fill-opacity="1" fill-rule="nonzero"/><path fill="#ffa91a" d="M 245.949219 106.105469 C 245.949219 108.019531 245.855469 109.929688 245.667969 111.835938 C 245.480469 113.738281 245.199219 115.628906 244.828125 117.507812 C 244.453125 119.386719 243.988281 121.242188 243.433594 123.074219 C 242.878906 124.902344 242.234375 126.703125 241.5 128.472656 C 240.769531 130.242188 239.949219 131.96875 239.046875 133.660156 C 238.144531 135.347656 237.164062 136.988281 236.101562 138.578125 C 235.035156 140.171875 233.898438 141.707031 232.683594 143.1875 C 231.46875 144.664062 230.183594 146.082031 228.832031 147.4375 C 227.476562 148.789062 226.058594 150.074219 224.582031 151.289062 C 223.101562 152.503906 221.566406 153.640625 219.972656 154.703125 C 218.382812 155.769531 216.742188 156.75 215.054688 157.652344 C 213.363281 158.554688 211.636719 159.375 209.867188 160.105469 C 208.097656 160.839844 206.300781 161.484375 204.46875 162.039062 C 202.636719 162.59375 200.78125 163.058594 198.902344 163.433594 C 197.027344 163.804688 195.132812 164.085938 193.230469 164.273438 C 191.324219 164.460938 189.414062 164.554688 187.5 164.554688 C 185.585938 164.554688 183.675781 164.460938 181.769531 164.273438 C 179.867188 164.085938 177.972656 163.804688 176.097656 163.433594 C 174.21875 163.058594 172.363281 162.59375 170.53125 162.039062 C 168.699219 161.484375 166.902344 160.839844 165.132812 160.105469 C 163.363281 159.375 161.636719 158.554688 159.945312 157.652344 C 158.257812 156.75 156.617188 155.769531 155.027344 154.703125 C 153.433594 153.640625 151.898438 152.503906 150.417969 151.289062 C 148.941406 150.074219 147.523438 148.789062 146.167969 147.4375 C 144.816406 146.082031 143.53125 144.664062 142.316406 143.1875 C 141.101562 141.707031 139.964844 140.171875 138.898438 138.578125 C 137.835938 136.988281 136.855469 135.347656 135.953125 133.660156 C 135.046875 131.96875 134.230469 130.242188 133.5 128.472656 C 132.765625 126.703125 132.121094 124.902344 131.566406 123.074219 C 131.011719 121.242188 130.546875 119.386719 130.171875 117.507812 C 129.800781 115.628906 129.519531 113.738281 129.332031 111.835938 C 129.144531 109.929688 129.050781 108.019531 129.050781 106.105469 C 129.050781 104.191406 129.144531 102.28125 129.332031 100.375 C 129.519531 98.472656 129.800781 96.578125 130.171875 94.703125 C 130.546875 92.824219 131.011719 90.96875 131.566406 89.136719 C 132.121094 87.304688 132.765625 85.503906 133.5 83.738281 C 134.230469 81.96875 135.046875 80.238281 135.953125 78.550781 C 136.855469 76.863281 137.835938 75.222656 138.898438 73.632812 C 139.964844 72.039062 141.101562 70.503906 142.316406 69.023438 C 143.53125 67.542969 144.816406 66.128906 146.167969 64.773438 C 147.523438 63.421875 148.941406 62.136719 150.417969 60.921875 C 151.898438 59.707031 153.433594 58.570312 155.027344 57.503906 C 156.617188 56.441406 158.257812 55.457031 159.945312 54.554688 C 161.636719 53.652344 163.363281 52.835938 165.132812 52.105469 C 166.902344 51.371094 168.699219 50.726562 170.53125 50.171875 C 172.363281 49.617188 174.21875 49.152344 176.097656 48.777344 C 177.972656 48.402344 179.867188 48.125 181.769531 47.9375 C 183.675781 47.75 185.585938 47.65625 187.5 47.65625 C 189.414062 47.65625 191.324219 47.75 193.230469 47.9375 C 195.132812 48.125 197.027344 48.402344 198.902344 48.777344 C 200.78125 49.152344 202.636719 49.617188 204.46875 50.171875 C 206.300781 50.726562 208.097656 51.371094 209.867188 52.105469 C 211.636719 52.835938 213.363281 53.652344 215.054688 54.554688 C 216.742188 55.457031 218.382812 56.441406 219.972656 57.503906 C 221.566406 58.570312 223.101562 59.707031 224.582031 60.921875 C 226.058594 62.136719 227.476562 63.421875 228.832031 64.773438 C 230.183594 66.128906 231.46875 67.542969 232.683594 69.023438 C 233.898438 70.503906 235.035156 72.039062 236.101562 73.632812 C 237.164062 75.222656 238.144531 76.863281 239.046875 78.550781 C 239.949219 80.238281 240.769531 81.96875 241.5 83.738281 C 242.234375 85.503906 242.878906 87.304688 243.433594 89.136719 C 243.988281 90.96875 244.453125 92.824219 244.828125 94.703125 C 245.199219 96.578125 245.480469 98.472656 245.667969 100.375 C 245.855469 102.28125 245.949219 104.191406 245.949219 106.105469 Z M 245.949219 106.105469 " fill-opacity="1" fill-rule="nonzero"/><path fill="#ffc91d" d="M 148.984375 137.28125 C 147.796875 137.28125 146.683594 136.707031 145.980469 135.742188 C 145.980469 135.742188 145.980469 135.742188 145.960938 135.726562 C 145.386719 134.925781 145.164062 133.945312 145.332031 132.960938 C 145.480469 131.980469 146.015625 131.125 146.816406 130.550781 C 148.429688 129.402344 150.839844 129.808594 151.988281 131.40625 C 151.988281 131.40625 151.988281 131.40625 152.007812 131.421875 C 153.195312 133.074219 152.804688 135.410156 151.136719 136.597656 C 150.503906 137.042969 149.761719 137.28125 148.984375 137.28125 Z M 142.363281 124.0625 C 140.75 124.0625 139.324219 123.019531 138.839844 121.480469 C 137.265625 116.53125 136.46875 111.355469 136.46875 106.109375 C 136.46875 77.976562 159.367188 55.074219 187.5 55.074219 C 198.421875 55.074219 208.824219 58.46875 217.597656 64.921875 C 219.246094 66.128906 219.597656 68.445312 218.414062 70.097656 C 217.246094 71.691406 214.816406 72.0625 213.21875 70.894531 C 205.710938 65.40625 196.808594 62.496094 187.5 62.496094 C 163.484375 62.53125 143.921875 82.097656 143.882812 106.109375 C 143.882812 110.578125 144.570312 115.011719 145.90625 119.238281 C 146.519531 121.1875 145.441406 123.285156 143.476562 123.894531 C 143.125 124.003906 142.734375 124.0625 142.363281 124.0625 Z M 142.363281 124.0625 " fill-opacity="1" fill-rule="nonzero"/><path fill="#f79219" d="M 223.925781 60.40625 C 231.898438 70.398438 236.679688 83.054688 236.679688 96.832031 C 236.679688 129.113281 210.507812 155.285156 178.226562 155.285156 C 164.449219 155.285156 151.796875 150.503906 141.800781 142.527344 C 152.511719 155.949219 168.996094 164.554688 187.5 164.554688 C 219.78125 164.554688 245.949219 138.386719 245.949219 106.105469 C 245.949219 87.601562 237.34375 71.117188 223.925781 60.40625 Z M 223.925781 60.40625 " fill-opacity="1" fill-rule="nonzero"/><g clip-path="url(#00a917bef6)"><path fill="#76a34f" d="M 39.695312 331.800781 C 69.089844 361.460938 116.957031 369.5 150.460938 369.492188 C 158.074219 369.492188 164.246094 363.316406 164.25 355.703125 C 164.320312 316.824219 152.34375 259.453125 112.75 233.574219 C 87.339844 214.984375 46.773438 207.292969 15.804688 207.277344 C 8.214844 207.230469 2.019531 213.328125 1.949219 220.917969 C 1.859375 257.695312 12.191406 305.351562 39.695312 331.800781 Z M 39.695312 331.800781 " fill-opacity="1" fill-rule="nonzero"/></g><path fill="#648940" d="M 121.53125 240.226562 C 146.820312 269.402344 155.039062 314.246094 154.976562 346.429688 C 154.972656 354.046875 148.800781 360.21875 141.1875 360.222656 C 109.257812 360.230469 64.292969 352.910156 34.699219 326.554688 C 36.296875 328.382812 37.960938 330.132812 39.695312 331.800781 C 69.085938 361.460938 116.953125 369.5 150.457031 369.492188 C 158.074219 369.492188 164.242188 363.316406 164.246094 355.703125 C 164.316406 319.871094 154.125 268.34375 121.53125 240.226562 Z M 121.53125 240.226562 " fill-opacity="1" fill-rule="nonzero"/><path fill="#648940" d="M 132.09375 327.484375 L 132.09375 250.984375 C 127.902344 245.945312 123.226562 241.347656 118.019531 237.320312 L 118.019531 313.40625 L 79.902344 275.292969 L 79.902344 217.359375 C 75.308594 215.835938 70.597656 214.496094 65.835938 213.332031 L 65.835938 261.222656 L 12.3125 207.699219 C 7.445312 208.9375 3.605469 212.769531 2.371094 217.648438 L 55.894531 271.171875 L 7.980469 271.171875 C 9.160156 275.917969 10.519531 280.628906 12.078125 285.246094 L 69.96875 285.246094 L 108.082031 323.359375 L 32.03125 323.359375 C 34.421875 326.359375 36.972656 329.183594 39.695312 331.804688 C 41.648438 333.773438 43.683594 335.648438 45.792969 337.433594 L 122.160156 337.433594 L 153.808594 369.085938 C 158.6875 367.867188 162.535156 364.050781 163.800781 359.191406 Z M 132.09375 327.484375 " fill-opacity="1" fill-rule="nonzero"/><g clip-path="url(#6c0c75950e)"><path fill="#478cf7" d="M 373.050781 293.539062 C 373.050781 294.871094 373.019531 296.203125 372.953125 297.53125 C 372.890625 298.863281 372.792969 300.191406 372.660156 301.515625 C 372.53125 302.84375 372.367188 304.164062 372.171875 305.480469 C 371.976562 306.800781 371.75 308.109375 371.488281 309.417969 C 371.230469 310.722656 370.9375 312.023438 370.613281 313.316406 C 370.289062 314.609375 369.933594 315.890625 369.546875 317.164062 C 369.160156 318.441406 368.742188 319.703125 368.292969 320.960938 C 367.847656 322.214844 367.367188 323.457031 366.855469 324.6875 C 366.347656 325.917969 365.808594 327.132812 365.238281 328.339844 C 364.667969 329.542969 364.070312 330.734375 363.441406 331.90625 C 362.8125 333.082031 362.15625 334.242188 361.472656 335.382812 C 360.789062 336.527344 360.074219 337.652344 359.335938 338.757812 C 358.59375 339.867188 357.828125 340.953125 357.035156 342.023438 C 356.242188 343.09375 355.421875 344.144531 354.578125 345.175781 C 353.730469 346.203125 352.863281 347.210938 351.96875 348.199219 C 351.074219 349.1875 350.15625 350.152344 349.210938 351.09375 C 348.269531 352.035156 347.304688 352.953125 346.320312 353.847656 C 345.332031 354.742188 344.324219 355.613281 343.292969 356.457031 C 342.265625 357.300781 341.214844 358.121094 340.144531 358.914062 C 339.074219 359.707031 337.984375 360.476562 336.878906 361.214844 C 335.769531 361.957031 334.644531 362.667969 333.503906 363.351562 C 332.359375 364.039062 331.203125 364.695312 330.027344 365.320312 C 328.851562 365.949219 327.664062 366.546875 326.457031 367.117188 C 325.253906 367.6875 324.035156 368.226562 322.804688 368.738281 C 321.574219 369.246094 320.332031 369.726562 319.078125 370.175781 C 317.824219 370.625 316.558594 371.042969 315.285156 371.429688 C 314.011719 371.816406 312.726562 372.171875 311.433594 372.492188 C 310.144531 372.816406 308.84375 373.109375 307.535156 373.367188 C 306.230469 373.628906 304.917969 373.855469 303.601562 374.050781 C 302.28125 374.246094 300.960938 374.410156 299.636719 374.542969 C 298.308594 374.671875 296.980469 374.769531 295.652344 374.835938 C 294.320312 374.898438 292.988281 374.933594 291.65625 374.933594 C 290.324219 374.933594 288.996094 374.898438 287.664062 374.835938 C 286.332031 374.769531 285.003906 374.671875 283.679688 374.542969 C 282.355469 374.410156 281.03125 374.246094 279.714844 374.050781 C 278.398438 373.855469 277.085938 373.628906 275.777344 373.367188 C 274.472656 373.109375 273.171875 372.816406 271.878906 372.492188 C 270.589844 372.171875 269.304688 371.816406 268.03125 371.429688 C 266.753906 371.042969 265.492188 370.625 264.238281 370.175781 C 262.980469 369.726562 261.738281 369.246094 260.507812 368.738281 C 259.277344 368.226562 258.0625 367.6875 256.855469 367.117188 C 255.652344 366.546875 254.464844 365.949219 253.289062 365.320312 C 252.113281 364.695312 250.953125 364.039062 249.8125 363.351562 C 248.667969 362.667969 247.542969 361.957031 246.4375 361.214844 C 245.328125 360.476562 244.242188 359.707031 243.171875 358.914062 C 242.101562 358.121094 241.050781 357.300781 240.019531 356.457031 C 238.992188 355.613281 237.984375 354.742188 236.996094 353.847656 C 236.007812 352.953125 235.042969 352.035156 234.101562 351.09375 C 233.160156 350.152344 232.242188 349.1875 231.347656 348.199219 C 230.453125 347.210938 229.582031 346.203125 228.738281 345.175781 C 227.894531 344.144531 227.074219 343.09375 226.28125 342.023438 C 225.488281 340.953125 224.71875 339.867188 223.980469 338.757812 C 223.238281 337.652344 222.527344 336.527344 221.84375 335.382812 C 221.15625 334.242188 220.5 333.082031 219.875 331.90625 C 219.246094 330.734375 218.648438 329.542969 218.078125 328.339844 C 217.507812 327.132812 216.96875 325.917969 216.457031 324.6875 C 215.949219 323.457031 215.46875 322.214844 215.019531 320.960938 C 214.570312 319.703125 214.152344 318.441406 213.765625 317.164062 C 213.378906 315.890625 213.027344 314.609375 212.703125 313.316406 C 212.378906 312.023438 212.085938 310.722656 211.828125 309.417969 C 211.566406 308.109375 211.339844 306.800781 211.144531 305.480469 C 210.949219 304.164062 210.785156 302.84375 210.65625 301.515625 C 210.523438 300.191406 210.425781 298.863281 210.359375 297.53125 C 210.296875 296.203125 210.261719 294.871094 210.261719 293.539062 C 210.261719 292.207031 210.296875 290.875 210.359375 289.542969 C 210.425781 288.214844 210.523438 286.886719 210.65625 285.558594 C 210.785156 284.234375 210.949219 282.914062 211.144531 281.59375 C 211.339844 280.277344 211.566406 278.964844 211.828125 277.660156 C 212.085938 276.351562 212.378906 275.054688 212.703125 273.761719 C 213.027344 272.46875 213.378906 271.183594 213.765625 269.910156 C 214.152344 268.636719 214.570312 267.371094 215.019531 266.117188 C 215.46875 264.863281 215.949219 263.621094 216.457031 262.390625 C 216.96875 261.160156 217.507812 259.941406 218.078125 258.738281 C 218.648438 257.53125 219.246094 256.34375 219.875 255.167969 C 220.5 253.992188 221.15625 252.835938 221.84375 251.691406 C 222.527344 250.550781 223.238281 249.425781 223.980469 248.316406 C 224.71875 247.210938 225.488281 246.121094 226.28125 245.050781 C 227.074219 243.980469 227.894531 242.929688 228.738281 241.902344 C 229.582031 240.871094 230.453125 239.863281 231.347656 238.875 C 232.242188 237.890625 233.160156 236.925781 234.101562 235.984375 C 235.042969 235.042969 236.007812 234.121094 236.996094 233.226562 C 237.984375 232.332031 238.992188 231.464844 240.019531 230.617188 C 241.050781 229.773438 242.101562 228.953125 243.171875 228.160156 C 244.242188 227.367188 245.328125 226.601562 246.4375 225.859375 C 247.542969 225.121094 248.667969 224.40625 249.8125 223.722656 C 250.953125 223.039062 252.113281 222.382812 253.289062 221.753906 C 254.464844 221.125 255.652344 220.527344 256.855469 219.957031 C 258.0625 219.386719 259.277344 218.847656 260.507812 218.339844 C 261.738281 217.828125 262.980469 217.351562 264.238281 216.902344 C 265.492188 216.453125 266.753906 216.035156 268.03125 215.648438 C 269.304688 215.261719 270.589844 214.90625 271.878906 214.582031 C 273.171875 214.257812 274.472656 213.96875 275.777344 213.707031 C 277.085938 213.445312 278.398438 213.21875 279.714844 213.023438 C 281.03125 212.828125 282.355469 212.664062 283.679688 212.535156 C 285.003906 212.40625 286.332031 212.304688 287.664062 212.242188 C 288.996094 212.175781 290.324219 212.144531 291.65625 212.144531 C 292.988281 212.144531 294.320312 212.175781 295.652344 212.242188 C 296.980469 212.304688 298.308594 212.40625 299.636719 212.535156 C 300.960938 212.664062 302.28125 212.828125 303.601562 213.023438 C 304.917969 213.21875 306.230469 213.445312 307.535156 213.707031 C 308.84375 213.96875 310.144531 214.257812 311.433594 214.582031 C 312.726562 214.90625 314.011719 215.261719 315.285156 215.648438 C 316.558594 216.035156 317.824219 216.453125 319.078125 216.902344 C 320.332031 217.351562 321.574219 217.828125 322.804688 218.339844 C 324.035156 218.847656 325.253906 219.386719 326.457031 219.957031 C 327.664062 220.527344 328.851562 221.125 330.027344 221.753906 C 331.203125 222.382812 332.359375 223.039062 333.503906 223.722656 C 334.644531 224.40625 335.769531 225.121094 336.878906 225.859375 C 337.984375 226.601562 339.074219 227.367188 340.144531 228.160156 C 341.214844 228.953125 342.265625 229.773438 343.292969 230.617188 C 344.324219 231.464844 345.332031 232.332031 346.320312 233.226562 C 347.304688 234.121094 348.269531 235.042969 349.210938 235.984375 C 350.15625 236.925781 351.074219 237.890625 351.96875 238.875 C 352.863281 239.863281 353.730469 240.871094 354.578125 241.902344 C 355.421875 242.929688 356.242188 243.980469 357.035156 245.050781 C 357.828125 246.121094 358.59375 247.210938 359.335938 248.316406 C 360.074219 249.425781 360.789062 250.550781 361.472656 251.691406 C 362.15625 252.835938 362.8125 253.992188 363.441406 255.167969 C 364.070312 256.34375 364.667969 257.53125 365.238281 258.738281 C 365.808594 259.941406 366.347656 261.160156 366.855469 262.390625 C 367.367188 263.621094 367.847656 264.863281 368.292969 266.117188 C 368.742188 267.371094 369.160156 268.636719 369.546875 269.910156 C 369.933594 271.183594 370.289062 272.46875 370.613281 273.761719 C 370.9375 275.054688 371.230469 276.351562 371.488281 277.660156 C 371.75 278.964844 371.976562 280.277344 372.171875 281.59375 C 372.367188 282.914062 372.53125 284.234375 372.660156 285.558594 C 372.792969 286.886719 372.890625 288.214844 372.953125 289.542969 C 373.019531 290.875 373.050781 292.207031 373.050781 293.539062 Z M 373.050781 293.539062 " fill-opacity="1" fill-rule="nonzero"/></g><g clip-path="url(#b61d5d037c)"><path fill="#377de2" d="M 339.175781 227.476562 C 348.8125 240.847656 354.507812 257.25 354.507812 274.992188 C 354.507812 319.945312 318.066406 356.390625 273.113281 356.390625 C 255.367188 356.390625 238.964844 350.695312 225.59375 341.058594 C 240.371094 361.570312 264.445312 374.933594 291.65625 374.933594 C 336.609375 374.933594 373.050781 338.492188 373.050781 293.539062 C 373.050781 266.328125 359.6875 242.253906 339.175781 227.476562 Z M 339.175781 227.476562 " fill-opacity="1" fill-rule="nonzero"/></g><g clip-path="url(#911f6828ca)"><path fill="#2266d3" d="M 344.375 231.546875 C 356.46875 245.753906 363.78125 264.148438 363.78125 284.265625 C 363.78125 329.21875 327.339844 365.660156 282.386719 365.660156 C 262.269531 365.660156 243.871094 358.347656 229.667969 346.257812 C 244.597656 363.796875 266.820312 374.933594 291.65625 374.933594 C 336.609375 374.933594 373.050781 338.492188 373.050781 293.539062 C 373.050781 268.699219 361.914062 246.476562 344.375 231.546875 Z M 344.375 231.546875 " fill-opacity="1" fill-rule="nonzero"/></g><path fill="#ffffff" d="M 275.554688 339.492188 L 262.554688 339.492188 C 251.550781 339.492188 242.597656 330.539062 242.597656 319.535156 L 242.597656 267.539062 C 242.597656 256.535156 251.550781 247.582031 262.554688 247.582031 L 275.554688 247.582031 C 286.558594 247.582031 295.511719 256.535156 295.511719 267.539062 L 295.511719 319.535156 C 295.511719 330.539062 286.558594 339.492188 275.554688 339.492188 Z M 262.558594 255 C 255.640625 255 250.015625 260.625 250.015625 267.539062 L 250.015625 319.535156 C 250.015625 326.449219 255.640625 332.074219 262.558594 332.074219 L 275.554688 332.074219 C 282.472656 332.074219 288.09375 326.449219 288.09375 319.535156 L 288.09375 267.539062 C 288.09375 260.625 282.46875 255 275.554688 255 Z M 262.558594 255 " fill-opacity="1" fill-rule="nonzero"/><path fill="#ffffff" d="M 337.007812 339.492188 L 307.683594 339.492188 C 305.636719 339.492188 303.972656 337.832031 303.972656 335.785156 L 303.972656 312.742188 C 303.972656 304.925781 310.335938 298.5625 318.15625 298.5625 L 326.535156 298.5625 C 330.265625 298.5625 333.296875 295.527344 333.296875 291.796875 C 333.296875 288.070312 330.265625 285.035156 326.535156 285.035156 L 307.683594 285.035156 C 305.636719 285.035156 303.972656 283.375 303.972656 281.328125 C 303.972656 279.28125 305.636719 277.617188 307.683594 277.617188 L 326.535156 277.617188 C 334.355469 277.617188 340.71875 283.980469 340.71875 291.796875 C 340.71875 299.621094 334.355469 305.980469 326.535156 305.980469 L 318.15625 305.980469 C 314.429688 305.980469 311.394531 309.015625 311.394531 312.742188 L 311.394531 332.074219 L 337.007812 332.074219 C 339.054688 332.074219 340.71875 333.738281 340.71875 335.785156 C 340.71875 337.832031 339.054688 339.492188 337.007812 339.492188 Z M 337.007812 339.492188 " fill-opacity="1" fill-rule="nonzero"/></svg>