<svg width="194" height="58" viewBox="0 0 194 58" fill="none" xmlns="http://www.w3.org/2000/svg">
<path d="M9.456 43.48C6.896 43.48 4.944 42.76 3.6 41.32C2.256 39.848 1.584 37.752 1.584 35.032V17.368C1.584 14.648 2.256 12.568 3.6 11.128C4.944 9.656 6.896 8.92 9.456 8.92C12.016 8.92 13.968 9.656 15.312 11.128C16.656 12.568 17.328 14.648 17.328 17.368V20.248H12.336V17.032C12.336 14.824 11.424 13.72 9.6 13.72C7.776 13.72 6.864 14.824 6.864 17.032V35.416C6.864 37.592 7.776 38.68 9.6 38.68C11.424 38.68 12.336 37.592 12.336 35.416V28.84H9.696V24.04H17.328V35.032C17.328 37.752 16.656 39.848 15.312 41.32C13.968 42.76 12.016 43.48 9.456 43.48ZM20.718 9.4H28.542C31.262 9.4 33.246 10.04 34.494 11.32C35.742 12.568 36.366 14.504 36.366 17.128V19.192C36.366 22.68 35.214 24.888 32.91 25.816V25.912C34.19 26.296 35.086 27.08 35.598 28.264C36.142 29.448 36.414 31.032 36.414 33.016V38.92C36.414 39.88 36.446 40.664 36.51 41.272C36.574 41.848 36.734 42.424 36.99 43H31.614C31.422 42.456 31.294 41.944 31.23 41.464C31.166 40.984 31.134 40.12 31.134 38.872V32.728C31.134 31.192 30.878 30.12 30.366 29.512C29.886 28.904 29.038 28.6 27.822 28.6H25.998V43H20.718V9.4ZM27.918 23.8C28.974 23.8 29.758 23.528 30.27 22.984C30.814 22.44 31.086 21.528 31.086 20.248V17.656C31.086 16.44 30.862 15.56 30.414 15.016C29.998 14.472 29.326 14.2 28.398 14.2H25.998V23.8H27.918ZM40.0774 9.4H54.4774V14.2H45.3574V23.08H52.6054V27.88H45.3574V38.2H54.4774V43H40.0774V9.4ZM57.5149 9.4H71.9149V14.2H62.7949V23.08H70.0429V27.88H62.7949V38.2H71.9149V43H57.5149V9.4ZM74.9524 9.4H81.5764L86.7124 29.512H86.8084V9.4H91.5124V43H86.0884L79.7524 18.472H79.6564V43H74.9524V9.4ZM109.988 43.48C107.428 43.48 105.492 42.76 104.18 41.32C102.868 39.848 102.212 37.752 102.212 35.032V33.112H107.204V35.416C107.204 37.592 108.116 38.68 109.94 38.68C110.836 38.68 111.508 38.424 111.956 37.912C112.436 37.368 112.676 36.504 112.676 35.32C112.676 33.912 112.356 32.68 111.716 31.624C111.076 30.536 109.892 29.24 108.164 27.736C105.988 25.816 104.468 24.088 103.604 22.552C102.74 20.984 102.308 19.224 102.308 17.272C102.308 14.616 102.98 12.568 104.324 11.128C105.668 9.656 107.62 8.92 110.18 8.92C112.708 8.92 114.612 9.656 115.892 11.128C117.204 12.568 117.86 14.648 117.86 17.368V18.76H112.868V17.032C112.868 15.88 112.644 15.048 112.196 14.536C111.748 13.992 111.092 13.72 110.228 13.72C108.468 13.72 107.588 14.792 107.588 16.936C107.588 18.152 107.908 19.288 108.548 20.344C109.22 21.4 110.42 22.68 112.148 24.184C114.356 26.104 115.876 27.848 116.708 29.416C117.54 30.984 117.956 32.824 117.956 34.936C117.956 37.688 117.268 39.8 115.892 41.272C114.548 42.744 112.58 43.48 109.988 43.48ZM125.112 14.2H119.592V9.4H135.912V14.2H130.392V43H125.112V14.2ZM146.148 43.48C143.588 43.48 141.636 42.76 140.292 41.32C138.948 39.848 138.276 37.752 138.276 35.032V9.4H143.556V35.416C143.556 36.568 143.78 37.4 144.228 37.912C144.708 38.424 145.38 38.68 146.244 38.68C147.108 38.68 147.764 38.424 148.212 37.912C148.692 37.4 148.932 36.568 148.932 35.416V9.4H154.02V35.032C154.02 37.752 153.348 39.848 152.004 41.32C150.66 42.76 148.708 43.48 146.148 43.48ZM157.781 9.4H165.845C168.469 9.4 170.437 10.104 171.749 11.512C173.061 12.92 173.717 14.984 173.717 17.704V34.696C173.717 37.416 173.061 39.48 171.749 40.888C170.437 42.296 168.469 43 165.845 43H157.781V9.4ZM165.749 38.2C166.613 38.2 167.269 37.944 167.717 37.432C168.197 36.92 168.437 36.088 168.437 34.936V17.464C168.437 16.312 168.197 15.48 167.717 14.968C167.269 14.456 166.613 14.2 165.749 14.2H163.061V38.2H165.749ZM181.285 28.696L174.901 9.4H180.517L184.117 21.736H184.213L187.813 9.4H192.949L186.565 28.696V43H181.285V28.696Z" fill="white"/>
<path d="M0 46.84H193.381V50.68H0V46.84Z" fill="white"/>
</svg>
